<svg xmlns="http://www.w3.org/2000/svg" version="1.1" xmlns:xlink="http://www.w3.org/1999/xlink" xmlns:svgjs="http://svgjs.dev/svgjs" width="2000" height="1247" viewBox="0 0 2000 1247"><g transform="matrix(1,0,0,1,-1.2121212121212466,0.504858299595071)"><svg viewBox="0 0 396 247" data-background-color="#ffffff" preserveAspectRatio="xMidYMid meet" height="1247" width="2000" xmlns="http://www.w3.org/2000/svg" xmlns:xlink="http://www.w3.org/1999/xlink"><g id="tight-bounds" transform="matrix(1,0,0,1,0.2400000000000091,-0.09999999999999432)"><svg viewBox="0 0 395.52 247.2" height="247.2" width="395.52"><g><svg></svg></g><g><svg viewBox="0 0 395.52 247.2" height="247.2" width="395.52"><g transform="matrix(1,0,0,1,123.392310771369,47.215199999999996)"><svg viewBox="0 0 148.735378457262 152.7696" height="152.7696" width="148.735378457262"><g><svg viewBox="0 0 148.735378457262 152.7696" height="152.7696" width="148.735378457262"><g><svg viewBox="0 0 148.735378457262 152.7696" height="152.7696" width="148.735378457262"><g><svg viewBox="0 0 148.735378457262 152.7696" height="152.7696" width="148.735378457262"><g id="textblocktransform"><svg viewBox="0 0 148.735378457262 152.7696" height="152.7696" width="148.735378457262" id="textblock"><g><svg viewBox="0 0 148.735378457262 152.7696" height="152.7696" width="148.735378457262"><g transform="matrix(1,0,0,1,0,0)"><svg width="148.735378457262" viewBox="2 -35.11 34.2 35.13" height="152.7696" data-palette-color="#0780e5"><path d="M14.77 0L2.59 0Q2.39 0 2.28-0.04 2.17-0.07 2.09-0.28 2-0.49 2-0.88L2-0.88 2-1.93Q2-2.44 2.32-3.66L2.32-3.66 10.4-31.01Q10.5-31.4 10.5-31.54L10.5-31.54Q10.5-31.98 10.28-31.98L10.28-31.98 2.78-31.98Q2.56-31.98 2.45-32.02 2.34-32.06 2.26-32.25 2.17-32.45 2.17-32.86L2.17-32.86 2.17-34.23Q2.17-34.79 2.32-34.95 2.47-35.11 2.78-35.11L2.78-35.11 14.5-35.11Q14.7-35.11 14.81-35.07 14.92-35.03 15-34.83 15.09-34.62 15.09-34.23L15.09-34.23 15.09-33.42Q15.09-32.45 14.72-31.1L14.72-31.1 6.69-3.96Q6.62-3.69 6.62-3.47L6.62-3.47Q6.62-3.13 6.76-3.13L6.76-3.13 14.77-3.13Q14.79-3.13 14.84-3.13L14.84-3.13Q15.01-3.13 15.1-3.1 15.19-3.08 15.27-2.91 15.36-2.73 15.36-2.37L15.36-2.37 15.36-0.88Q15.36-0.32 15.21-0.16 15.06 0 14.77 0L14.77 0ZM23.58-19.51L23.58-19.51 27.22-19.51Q29.86-19.51 31.05-21.06 32.25-22.61 32.25-25.9L32.25-25.9Q32.25-27.73 31.89-28.94 31.54-30.15 30.77-30.81 30-31.47 29-31.73 28-31.98 26.49-31.98L26.49-31.98 23.58-31.98Q23.36-31.98 23.36-31.57L23.36-31.57 23.36-20.04Q23.36-19.51 23.58-19.51ZM22.75 0L20.02 0Q19.72 0 19.58-0.21 19.43-0.42 19.43-1.07L19.43-1.07 19.43-33.98Q19.43-34.47 19.52-34.73 19.6-34.99 19.71-35.05 19.82-35.11 20.02-35.11L20.02-35.11 27.44-35.11Q28.59-35.11 29.43-35.05 30.27-34.99 31.24-34.75 32.2-34.52 32.88-34.13 33.57-33.74 34.23-33.07 34.89-32.4 35.29-31.45 35.69-30.49 35.94-29.13 36.18-27.76 36.18-26.03L36.18-26.03Q36.18-23.63 35.64-22.02 35.1-20.41 34.3-19.64 33.49-18.87 32.25-18.36L32.25-18.36Q32.15-18.26 32.15-18.19L32.15-18.19Q32.15-18.09 32.22-18.09L32.22-18.09Q32.96-17.75 33.38-17.49 33.81-17.24 34.38-16.65 34.96-16.06 35.28-15.34 35.59-14.62 35.85-13.4 36.11-12.18 36.15-10.57L36.15-10.57Q36.2-9.25 36.2-1.27L36.2-1.27Q36.2 0 35.72 0L35.72 0Q32.88 0.02 32.83 0.02L32.83 0.02Q32.37 0.02 32.37-1.17L32.37-1.17Q32.35-1.39 32.26-6.64 32.18-11.89 32.05-12.43L32.05-12.43Q31.88-16.43 28.02-16.43L28.02-16.43 23.61-16.43Q23.36-16.43 23.36-15.97L23.36-15.97 23.36-1.07Q23.36-0.42 23.22-0.21 23.07 0 22.75 0L22.75 0Z" opacity="1" transform="matrix(1,0,0,1,0,0)" fill="#0780e5" class="wordmark-text-0" data-fill-palette-color="primary" id="text-0"></path></svg></g></svg></g></svg></g></svg></g></svg></g></svg></g></svg></g><path d="M89.826 41.215L89.826 0 337.026 0 337.026 247.2 89.826 247.2 89.826 205.985 103.603 205.985 103.603 233.423 323.249 233.423 323.249 13.777 103.603 13.777 103.603 41.215Z" fill="#0780e5" stroke="transparent" data-fill-palette-color="tertiary"></path></svg></g><defs></defs></svg><rect width="395.52" height="247.2" fill="none" stroke="none" visibility="hidden"></rect></g></svg></g></svg>